<svg xmlns="http://www.w3.org/2000/svg" width="40" height="40"><path d="M36.977 4.176v5.611c0 1.211-.987 2.2-2.199 2.2H5.185c-1.212 0-2.2-.989-2.2-2.201v-5.61c0-1.212.988-2.2 2.2-2.2h29.593c1.211 0 2.199.988 2.199 2.2zm0 12.01v5.588c0 1.21-.987 2.199-2.199 2.199H5.185c-1.212 0-2.2-.988-2.2-2.199v-5.588c0-1.212.988-2.2 2.2-2.2h29.593a2.203 2.203 0 0 1 2.199 2.2zm0 11.986v5.596c0 1.212-.987 2.2-2.199 2.2H5.185c-1.212 0-2.2-.988-2.2-2.2v-5.596c0-1.212.988-2.2 2.2-2.2h29.593a2.204 2.204 0 0 1 2.199 2.2z" fill-rule="evenodd" clip-rule="evenodd" fill="#fff"/></svg>